<svg xmlns="http://www.w3.org/2000/svg" xmlns:xlink="http://www.w3.org/1999/xlink" viewBox="0 0 149.04 52.51"><defs><style>.cls-1{fill:url(#linear-gradient);}.cls-2{fill:#00a651;}.cls-3{fill:#f26522;}.cls-4{fill:#f7941d;}.cls-5{fill:#fff;}.cls-6{fill:#fbb040;}.cls-7{fill:#f15a29;}.cls-8{fill:#27aae1;}.cls-9{fill:#ed1c24;}.cls-10{fill:none;}.cls-11{fill:url(#linear-gradient-2);}.cls-12{fill:url(#linear-gradient-3);}.cls-13{fill:url(#linear-gradient-4);}.cls-14{font-size:10.06px;fill:#c49a6c;font-family:InkFree, Ink Free;}</style><linearGradient id="linear-gradient" x1="65.24" y1="37.41" x2="110.1" y2="37.41" gradientUnits="userSpaceOnUse"><stop offset="0" stop-color="#c49a6c"/><stop offset="1" stop-color="#8b5e3c"/></linearGradient><linearGradient id="linear-gradient-2" x1="50.21" y1="32.76" x2="65.24" y2="32.76" xlink:href="#linear-gradient"/><linearGradient id="linear-gradient-3" x1="45.24" y1="31.25" x2="49.32" y2="31.25" xlink:href="#linear-gradient"/><linearGradient id="linear-gradient-4" x1="40.88" y1="29.89" x2="42.92" y2="29.89" xlink:href="#linear-gradient"/></defs><title>Asset 1</title><g id="Layer_2" data-name="Layer 2"><g id="Layer_1-2" data-name="Layer 1"><path class="cls-1" d="M102.14,35.18a1.39,1.39,0,0,0-.06-.13l8-8.07-1.64-2-2.13-2.64-8.81,5.61c-1.13-4.94-8.87-6.41-11.34-1.46A5.78,5.78,0,0,0,80,28.84a9.76,9.76,0,0,0-6.28,1.54,4.62,4.62,0,0,0-3.63-1.57c-6.3,0-6.44,9.56-.41,10,.21,7.45,9.18,11.05,15,7.85.44,5.06,7.52,7,10.69,3.35,2.67,3.56,9.53,3.72,10.91-1.93a6,6,0,0,0,.13-2.47,5.75,5.75,0,0,0,1.81-3.08C109.23,38.09,105.66,35.26,102.14,35.18Z"/><rect class="cls-2" x="105.62" y="21.49" width="8.7" height="4.35" transform="translate(63.75 -78.88) rotate(53.59)"/><path class="cls-3" d="M114.84,45.57a20.46,20.46,0,0,1-3.21,1.94,20.54,20.54,0,0,0,5.14-18.06,28.3,28.3,0,0,0,6.34-2A20.48,20.48,0,0,1,114.84,45.57Z"/><path class="cls-4" d="M106.46,15.46A20.56,20.56,0,0,0,87.68,15a21,21,0,0,1,2.8-2.49A20.5,20.5,0,0,1,110.26,10,28,28,0,0,0,106.46,15.46Z"/><path class="cls-5" d="M123.11,27.43a28.3,28.3,0,0,1-6.34,2,20.52,20.52,0,0,0-10.31-14,28,28,0,0,1,3.8-5.46,20.52,20.52,0,0,1,12.85,17.43Z"/><path class="cls-6" d="M140.05,1.49,134.7,5.43A14.36,14.36,0,0,1,132.23,0,23.16,23.16,0,0,1,140.05,1.49Z"/><path class="cls-7" d="M139.15,9.39a14.42,14.42,0,0,1-4.45-4l5.35-3.94A23.31,23.31,0,0,1,139.15,9.39Z"/><path class="cls-6" d="M130.5,8.53,110.63,23.18A13.74,13.74,0,0,0,105,18.7a26,26,0,0,1,1.46-3.24,28,28,0,0,1,3.8-5.46A29.67,29.67,0,0,1,115,5.71,29,29,0,0,1,127.69.32,14.37,14.37,0,0,0,130.5,8.53Z"/><path class="cls-7" d="M128.6,24.22a30.34,30.34,0,0,1-5.49,3.21,28.3,28.3,0,0,1-6.34,2,26.42,26.42,0,0,1-3.52.43,13.74,13.74,0,0,0-2.62-6.7L130.5,8.53a14.35,14.35,0,0,0,7,5.1A29.13,29.13,0,0,1,128.6,24.22Z"/><path class="cls-4" d="M118.61,17.29,93.41,35.88a45.3,45.3,0,0,1,25.2-18.59Z"/><path class="cls-3" d="M107.67,28.84a42,42,0,0,1-14.26,7l25.2-18.59A41.85,41.85,0,0,1,107.67,28.84Z"/><circle class="cls-8" cx="125.36" cy="12.32" r="4.07"/><path class="cls-7" d="M134.7,5.43l-4.2,3.1A14.37,14.37,0,0,1,127.69.32,25,25,0,0,1,132.23,0,14.36,14.36,0,0,0,134.7,5.43Z"/><path class="cls-9" d="M137.51,13.63a14.35,14.35,0,0,1-7-5.1l4.2-3.1a14.42,14.42,0,0,0,4.45,4A25.58,25.58,0,0,1,137.51,13.63Z"/><line class="cls-10" x1="149.04" y1="13.68" x2="148.72" y2="13.24"/><path class="cls-11" d="M62.36,29.89a3.36,3.36,0,0,0-.8.11,4.51,4.51,0,0,0-4.29-2.6,4.73,4.73,0,0,0-3.12,1.06,4,4,0,0,0-.8-.09c-4.07,0-4.18,6.11-.35,6.47a4.53,4.53,0,0,0,4.27,2.56,5.15,5.15,0,0,0,1.4-.19,2.74,2.74,0,0,0,2.14.92,2.77,2.77,0,0,0,2.85-2.55C66.13,34.4,65.7,29.89,62.36,29.89Z"/><path class="cls-12" d="M47.28,29.14c-2.72,0-2.72,4.22,0,4.22S50,29.14,47.28,29.14Z"/><path class="cls-13" d="M41.9,28.83a1.06,1.06,0,0,0,0,2.12A1.06,1.06,0,0,0,41.9,28.83Z"/><text class="cls-14" transform="translate(16 15.81) rotate(3.05) scale(1.39 1)">T</text><text class="cls-14" transform="translate(25.53 16.58) rotate(12.11) scale(1.39 1)">i</text><text class="cls-14" transform="translate(28.39 17.11) rotate(17.43) scale(1.39 1)">e</text><text class="cls-14" transform="translate(34.44 19.06) rotate(20.96) scale(1.39 1)">n</text><text class="cls-14" transform="matrix(1.31, 0.46, -0.33, 0.94, 40.54, 21.46)">g</text><text class="cls-14" transform="translate(48.13 24.04) rotate(14.11) scale(1.39 1)"> </text><text class="cls-14" transform="translate(52.53 25.22) rotate(7.25) scale(1.39 1)">a</text><text class="cls-14" transform="translate(60.54 26.13) rotate(-0.75) scale(1.39 1)">n</text><text class="cls-14" transform="translate(67.42 26.05) rotate(-6.2) scale(1.39 1)">h</text><text class="cls-14" transform="matrix(1.37, -0.25, 0.18, 0.98, 75.52, 25.08)"> </text><text class="cls-14" transform="translate(79.81 24.36) rotate(-14.55) scale(1.39 1)">6</text><text class="cls-14" transform="translate(88.06 22.17) rotate(-19.26) scale(1.39 1)">+</text></g></g></svg>